# xmcd
#
# Track frame offsets:
#   150
#   13822
#   24395
#   38687
#   49657
#   62487
#   76640
#   91702
#   110262
#   125070
#   139097
#   151145
#   167312
#   181620
#   200432
#
# Disc length: 2740 seconds
#
# Revision: 0
# Processed by: cddbd v1.5.2PL0 Copyright (c) Steve Scherf et al.
# Submitted via: uFREEDB ActiveX Control 1.5
#
DISCID=a60ab20f
DTITLE=Coro kolina - Coro kolina
DYEAR=1900
DGENRE=Gospel and Religious
TTITLE0=quero louvar-te
TTITLE1=a cristo dai louvor
TTITLE2=santo
TTITLE3=deus cuidará de ti
TTITLE4=salmo 40
TTITLE5=pai nosso
TTITLE6=o barquinho
TTITLE7=o brilho da vitória
TTITLE8=caminhando com o espírito
TTITLE9=chegamos pela fé
TTITLE10=salmo 117
TTITLE11=aquele que me ama
TTITLE12=dia
TTITLE13=baba di tchu mei
TTITLE14=finda-se este dia
EXTD=
EXTT0=
EXTT1=
EXTT2=
EXTT3=
EXTT4=
EXTT5=
EXTT6=
EXTT7=
EXTT8=
EXTT9=
EXTT10=
EXTT11=
EXTT12=
EXTT13=
EXTT14=
PLAYORDER=
